<?xml version="1.0" encoding="utf-8"?>
<svg viewBox="0 0 1024 1024" xmlns="http://www.w3.org/2000/svg" xmlns:bx="https://boxy-svg.com">
  <defs>
    <bx:grid x="0" y="0" width="128" height="128"/>
  </defs>
  <g style="" transform="matrix(1.601191, 0, 0, 3.559974, -76.952675, -327.676666)">
    <path d="M 605.623 293.498 C 605.343 292.316 604.788 291.216 604.003 290.288 C 604.236 274.368 604.47 258.451 604.703 242.538 C 604.903 228.688 605.133 214.838 605.313 200.998 C 605.413 193.088 604.853 185.108 604.843 177.158 C 607.382 169.954 607.73 162.159 605.843 154.758 C 605.49 152.943 604.289 151.408 602.613 150.628 L 602.613 149.958 C 602.823 145.958 603.303 141.468 600.923 137.958 C 598.543 134.448 594.923 133.718 590.923 133.648 C 572.713 133.288 554.483 133.348 536.273 133.298 C 499.833 133.211 463.4 133.405 426.973 133.878 C 407.953 134.118 388.936 134.451 369.923 134.878 C 332.382 131.052 294.656 129.333 256.923 129.728 C 253.814 129.848 250.851 131.079 248.573 133.198 L 191.083 130.878 C 188.591 130.927 186.193 131.843 184.303 133.468 L 156.553 130.468 C 153.683 126.078 147.303 128.098 142.943 132.208 C 140.949 132.908 139.102 133.969 137.493 135.338 C 134.551 137.932 132.294 141.213 130.923 144.888 C 129.643 148.328 129.093 152.318 130.383 155.328 C 127.743 165.458 127.623 176.328 128.463 187.138 C 129.993 206.748 130.113 226.398 129.993 246.068 C 129.863 266.878 129.443 287.688 129.873 308.498 C 130.053 317.498 128.483 330.308 133.723 338.128 C 138.233 344.868 146.723 346.258 154.233 346.338 C 174.773 346.568 195.303 344.418 215.803 343.248 C 236.388 342.233 257.014 342.373 277.583 343.668 C 319.153 345.978 360.693 345.938 402.313 345.938 C 449.363 345.938 496.453 346.458 543.483 344.888 C 544.389 344.849 545.287 344.712 546.163 344.478 C 546.373 344.478 546.573 344.568 546.783 344.598 C 547.248 345.06 547.789 345.439 548.383 345.718 C 559.013 350.628 570.153 349.198 579.533 343.958 C 581.223 344.378 582.923 344.788 584.603 345.228 C 584.731 345.261 584.861 345.284 584.993 345.298 C 586.508 346.28 588.369 346.575 590.113 346.108 C 596.113 344.698 599.783 338.628 602.163 333.508 C 607.99 320.994 609.215 306.826 605.623 293.498 Z" fill="#995db5"/>
    <path d="M 599.503 138.698 C 562.783 129.408 524.783 130.218 487.243 131.968 C 468.443 132.838 449.653 133.968 430.843 134.058 C 411.303 134.198 391.763 133.288 372.253 132.528 C 352.743 131.768 333.043 131.048 313.433 131.328 C 294.083 131.598 274.873 133.328 255.613 134.968 C 236.353 136.608 217.113 138.078 197.813 137.378 C 188.223 137.038 178.723 135.818 169.163 135.038 C 161.073 134.378 151.103 133.168 143.243 135.788 C 135.923 138.228 132.373 145.368 132.813 152.508 C 132.548 153.154 132.343 153.824 132.203 154.508 C 131.221 159.914 130.792 165.405 130.923 170.898 C 129.413 194.758 130.063 218.628 134.443 242.268 C 134.525 242.841 134.775 243.377 135.163 243.808 C 134.923 265.628 134.273 287.448 133.523 309.258 C 133.203 318.378 132.923 327.508 132.393 336.628 C 132.203 339.978 135.263 341.118 137.903 339.808 C 141.183 338.178 143.003 334.088 143.203 330.618 C 144.313 311.368 144.753 292.058 145.263 272.788 C 145.813 251.898 146.733 230.858 145.943 209.958 C 145.853 207.378 145.653 204.788 145.393 202.208 C 146.093 196.398 146.883 190.608 147.393 184.848 C 148.26 176.739 148.166 168.555 147.113 160.468 C 146.565 156.844 145.729 153.269 144.613 149.778 C 144.513 149.458 144.413 149.078 144.303 148.688 C 144.771 148.578 145.245 148.494 145.723 148.438 C 163.593 147.048 181.633 151.068 199.523 151.268 C 218.173 151.478 236.783 149.898 255.343 148.268 C 273.623 146.668 291.873 145.268 310.233 145.018 C 328.593 144.768 346.843 145.458 365.133 146.178 C 383.423 146.898 401.673 147.728 419.923 147.798 C 438.173 147.868 456.243 146.928 474.383 146.048 C 514.453 144.118 555.073 142.498 594.303 152.418 C 599.843 153.808 606.203 140.388 599.503 138.698 Z" opacity="0.2"/>
    <path d="M 605.763 325.628 C 605.763 323.978 605.763 322.318 605.763 320.628 C 605.696 311.208 605.619 301.788 605.533 292.368 C 605.286 263.308 605.049 234.255 604.823 205.208 C 604.673 186.418 604.203 167.608 604.373 148.818 C 604.373 143.708 605.823 137.198 600.743 133.928 C 596.363 131.098 589.363 132.208 584.413 132.078 C 581.703 132.008 579.003 131.908 576.293 131.878 C 573.373 131.878 570.443 131.878 567.523 131.878 L 440.073 131.878 C 380.513 131.878 320.956 131.878 261.403 131.878 C 228.303 131.878 195.213 131.998 162.123 131.948 C 157.603 131.948 153.123 131.878 148.573 131.948 C 144.023 132.018 137.573 131.468 133.713 134.588 C 130.213 137.418 131.343 141.268 131.213 145.228 C 131.207 145.291 131.207 145.355 131.213 145.418 C 131.073 191.078 130.773 236.728 130.543 282.418 C 130.489 293.278 130.436 304.135 130.383 314.988 C 130.383 321.468 129.943 328.238 130.833 334.668 C 132.273 345.048 147.143 343.958 155.013 343.948 C 161.833 343.948 168.563 343.768 175.373 343.948 C 178.823 344.058 182.303 343.948 185.753 343.948 L 318.643 343.648 L 494.973 343.218 L 554.973 343.058 C 568.423 343.058 583.093 344.118 596.293 342.318 C 599.343 341.898 602.943 341.118 604.423 338.078 C 606.093 334.798 605.683 329.268 605.763 325.628 Z M 603.113 331.348 C 602.933 333.758 603.203 337.148 600.903 338.798 C 599.403 339.888 596.523 340.148 594.803 340.318 C 588.533 340.938 582.103 340.688 575.803 340.808 C 573.163 340.808 570.513 340.808 567.863 340.808 L 523.033 340.918 L 360.033 341.318 L 207.463 341.718 C 196.903 341.718 186.283 342.078 175.713 341.808 C 170.663 341.688 165.713 341.458 160.603 341.668 C 153.913 341.938 146.053 342.518 139.603 340.588 C 134.283 338.998 133.153 336.768 132.783 331.708 C 132.643 329.828 132.483 327.918 132.443 326.028 C 132.343 321.088 132.443 316.128 132.443 311.188 L 132.643 157.978 C 132.643 153.798 132.643 149.621 132.643 145.448 C 132.647 145.401 132.647 145.355 132.643 145.308 C 132.863 140.378 131.783 136.228 138.063 134.468 C 141.273 133.568 145.203 133.868 148.523 133.828 C 152.833 133.828 157.133 133.828 161.443 133.828 L 176.763 133.828 C 194.843 133.828 212.923 133.845 231.003 133.878 L 399.313 133.938 L 547.313 133.938 C 556.913 133.938 566.523 133.848 576.123 133.938 L 576.503 133.938 C 580.503 133.938 584.423 134.138 588.383 134.248 C 593.283 134.378 600.623 133.398 602.243 139.508 C 603.123 142.828 602.243 146.758 602.243 150.248 C 602.303 157.648 602.359 165.048 602.413 172.448 C 602.786 222.055 603.153 271.665 603.513 321.278 C 603.513 322.728 603.573 324.178 603.513 325.628 C 603.473 327.628 603.243 329.468 603.113 331.338 Z" fill="#1e1e1e"/>
  </g>
  <g style=""/>
  <path d="M 794.606 298.943 C 794.606 286.913 785.89 282.357 776.892 287.369 C 766.89 292.928 759.74 308.512 759.861 320.861 C 760.142 351.71 759.861 382.559 758.335 413.408 C 757.636 428.081 756.752 442.74 755.683 457.38 C 754.96 467.041 755.121 480.437 753.554 491.875 C 740.058 497.935 717.805 497.48 706.839 497.525 C 689.346 497.156 671.897 495.388 654.62 492.239 C 613.745 485.536 572.48 482.356 531.183 482.716 C 491.738 483.263 452.373 486.635 412.968 488.822 C 392.442 489.961 371.916 490.781 351.39 490.781 C 341.348 490.781 295.597 494.016 292.223 488.002 C 280.895 468.089 252.054 511.286 262.297 529.331 C 269.367 541.816 286.077 539.174 297.525 539.811 C 312.387 540.586 327.289 540.905 342.152 540.768 C 373.362 540.495 404.493 538.399 435.623 536.212 C 500.173 532.065 564.161 530.425 628.431 540.495 C 654.982 544.642 681.252 548.971 708.084 546.419 C 731.904 544.14 762.15 540.541 776.973 516.39 C 792.799 490.599 789.867 448.039 791.754 417.691 C 794.124 378.504 795.008 338.814 794.606 298.943 Z" opacity="0.15" style=""/>
  <path d="M 769.1 280.215 C 768.577 275.658 757.692 262.717 756.165 262.398 C 752.831 261.76 273.344 259.209 270.13 260.849 C 267.559 262.079 254.786 280.261 254.947 285.774 C 254.947 289.283 253.219 477.384 253.621 484.538 C 253.822 487.728 270.09 502.264 272.5 504.953 C 276.838 509.874 743.794 509.145 752.872 507.368 C 756.165 506.73 769.18 494.108 769.421 488.321 C 769.662 482.533 769.622 284.863 769.1 280.215 Z" fill="#f7941f" style=""/>
  <path d="M 763.757 280.352 C 759.74 262.581 741.384 265.178 728.61 264.996 C 707.04 264.845 685.477 266.016 664.02 268.504 C 619.835 265.998 575.248 263.948 530.902 264.813 C 491.136 265.542 451.57 270.965 411.844 271.512 C 368.181 272.15 325.12 261.715 281.417 264.859 C 270.09 265.679 262.297 279.759 262.177 291.835 C 261.398 356.176 261.144 420.53 261.414 484.903 C 261.414 509.008 287.523 484.128 287.483 468.499 C 287.242 412.966 287.427 357.406 288.045 301.814 C 323.955 302.087 359.585 309.15 395.616 309.059 C 436.587 309.059 477.478 303.09 518.49 302.361 C 593.926 300.994 669.643 307.601 744.999 311.474 C 757.049 311.93 766.368 292.29 763.757 280.352 Z" fill="#fff" opacity="0.25" style=""/>
  <path d="M 770.947 301.723 C 770.947 294.933 770.947 288.053 770.626 281.263 C 770.823 280.63 770.823 279.937 770.626 279.304 C 765.364 261.806 756.647 259.664 742.99 259.345 C 724.111 258.935 705.232 258.89 686.353 258.662 C 623.088 257.933 559.823 257.933 496.478 257.477 L 331.427 256.657 C 321.867 256.657 312.307 256.657 302.707 256.657 C 291.379 256.657 265.43 252.966 256.553 263.082 C 250.166 270.327 250.97 287.688 250.689 297.12 C 249.002 353.259 247.997 409.808 248.118 465.993 C 248.118 476.519 246.31 489.642 252.336 497.89 C 258.361 506.137 270.411 510.876 279.329 511.879 C 292.946 513.428 307.246 512.152 320.863 512.243 C 436.467 513.187 552.071 513.989 667.675 514.658 C 682.979 514.658 698.163 514.112 713.467 513.565 C 737.367 512.653 771.188 519.443 771.751 483.536 C 772.835 423.023 771.55 362.282 770.947 301.723 Z M 764.279 446.581 C 764.279 456.879 764.199 467.191 764.038 477.521 C 764.038 493.06 762.351 500.806 744.758 502.674 C 723.669 504.953 701.617 504.269 680.489 504.542 C 578.783 506.001 476.876 502.993 375.21 502.31 L 305.639 501.808 C 293.87 501.808 280.534 503.813 269.487 498.254 C 251.492 489.141 257.437 449.588 257.678 430.405 C 258.08 397.778 258.505 365.12 258.963 332.435 C 258.963 321.636 259.164 310.836 259.405 300.037 C 259.807 282.676 258.521 268.869 277.642 267.092 C 290.736 265.861 303.952 266.135 317.127 266.18 L 448.035 266.682 L 649.197 267.411 L 725.075 267.411 C 739.857 267.411 758.134 261.35 764.922 281.081 L 764.922 281.081 C 768.377 335.761 764.681 391.946 764.279 446.581 Z" fill="#1e1e1e" style=""/>
  <path d="M 366.727 438.493 L 355.6 438.493 L 335.235 335.146 L 347.165 335.146 L 361.585 411.335 L 375.282 335.146 L 386.891 335.146 L 366.727 438.493 Z M 420.07 439.632 C 413.454 439.632 408.393 438.142 404.886 435.166 C 401.352 432.191 398.942 427.999 397.656 422.59 C 396.395 417.213 395.768 410.911 395.768 403.679 L 395.768 335.146 L 407.899 335.146 L 407.899 404.317 C 407.899 408.724 408.164 412.761 408.702 416.438 C 409.209 420.084 410.349 422.968 412.117 425.096 C 413.884 427.224 416.535 428.286 420.07 428.286 C 423.657 428.286 426.308 427.224 428.023 425.096 C 429.763 422.968 430.887 420.084 431.397 416.438 C 431.932 412.761 432.201 408.724 432.201 404.317 L 432.201 335.146 L 444.251 335.146 L 444.251 403.679 C 444.251 410.911 443.609 417.213 442.323 422.59 C 441.038 427.999 438.652 432.191 435.173 435.166 C 431.691 438.142 426.658 439.632 420.07 439.632 Z M 493.152 438.493 L 457.603 438.493 L 457.603 335.146 L 492.951 335.146 L 492.951 345.855 L 470.336 345.855 L 470.336 380.076 L 488.653 380.076 L 488.653 390.283 L 470.336 390.283 L 470.336 428.149 L 493.152 428.149 L 493.152 438.493 Z M 541.864 438.493 L 529.131 438.493 L 529.131 335.146 L 564.358 335.146 L 564.358 345.49 L 541.864 345.49 L 541.864 379.939 L 559.297 379.939 L 559.297 390.146 L 541.864 390.146 L 541.864 438.493 Z M 609.098 438.493 L 573.107 438.493 L 573.107 335.146 L 585.84 335.146 L 585.84 428.149 L 609.098 428.149 L 609.098 438.493 Z M 653.307 438.493 L 617.758 438.493 L 617.758 335.146 L 653.106 335.146 L 653.106 345.855 L 630.491 345.855 L 630.491 380.076 L 648.808 380.076 L 648.808 390.283 L 630.491 390.283 L 630.491 428.149 L 653.307 428.149 L 653.307 438.493 Z M 669.719 438.493 L 657.91 438.493 L 676.95 384.404 L 658.271 335.146 L 670.081 335.146 L 683.899 371.646 L 696.512 335.146 L 708.321 335.146 L 689.201 385.544 L 709.205 438.493 L 697.395 438.493 L 682.573 399.578 L 669.719 438.493 Z" style="fill: rgb(51, 51, 51); white-space: pre;"/>
  <path d="M 794.606 616.203 C 794.606 604.173 785.89 599.617 776.892 604.629 C 766.89 610.188 759.74 625.772 759.861 638.121 C 760.142 668.97 759.861 699.819 758.335 730.668 C 757.636 745.341 756.752 760 755.683 774.64 C 754.96 784.301 755.121 797.697 753.554 809.135 C 740.058 815.195 717.805 814.74 706.839 814.785 C 689.346 814.416 671.897 812.648 654.62 809.499 C 613.745 802.796 572.48 799.616 531.183 799.976 C 491.738 800.523 452.373 803.895 412.968 806.082 C 392.442 807.221 371.916 808.041 351.39 808.041 C 341.348 808.041 295.597 811.276 292.223 805.262 C 280.895 785.349 252.054 828.546 262.297 846.591 C 269.367 859.076 286.077 856.434 297.525 857.071 C 312.387 857.846 327.289 858.165 342.152 858.028 C 373.362 857.755 404.493 855.659 435.623 853.472 C 500.173 849.325 564.161 847.685 628.431 857.755 C 654.982 861.902 681.252 866.231 708.084 863.679 C 731.904 861.4 762.15 857.801 776.973 833.65 C 792.799 807.859 789.867 765.299 791.754 734.951 C 794.124 695.764 795.008 656.074 794.606 616.203 Z" opacity="0.15" style=""/>
  <path d="M 769.1 597.475 C 768.577 592.918 757.692 579.977 756.165 579.658 C 752.831 579.02 273.344 576.469 270.13 578.109 C 267.559 579.339 254.786 597.521 254.947 603.034 C 254.947 606.543 253.219 794.644 253.621 801.798 C 253.822 804.988 270.09 819.524 272.5 822.213 C 276.838 827.134 743.794 826.405 752.872 824.628 C 756.165 823.99 769.18 811.368 769.421 805.581 C 769.662 799.793 769.622 602.123 769.1 597.475 Z" fill="#f7941f" style=""/>
  <path d="M 763.757 597.612 C 759.74 579.841 741.384 582.438 728.61 582.256 C 707.04 582.105 685.477 583.276 664.02 585.764 C 619.835 583.258 575.248 581.208 530.902 582.073 C 491.136 582.802 451.57 588.225 411.844 588.772 C 368.181 589.41 325.12 578.975 281.417 582.119 C 270.09 582.939 262.297 597.019 262.177 609.095 C 261.398 673.436 261.144 737.79 261.414 802.163 C 261.414 826.268 287.523 801.388 287.483 785.759 C 287.242 730.226 287.427 674.666 288.045 619.074 C 323.955 619.347 359.585 626.41 395.616 626.319 C 436.587 626.319 477.478 620.35 518.49 619.621 C 593.926 618.254 669.643 624.861 744.999 628.734 C 757.049 629.19 766.368 609.55 763.757 597.612 Z" fill="#fff" opacity="0.25" style=""/>
  <path d="M 770.947 618.983 C 770.947 612.193 770.947 605.313 770.626 598.523 C 770.823 597.89 770.823 597.197 770.626 596.564 C 765.364 579.066 756.647 576.924 742.99 576.605 C 724.111 576.195 705.232 576.15 686.353 575.922 C 623.088 575.193 559.823 575.193 496.478 574.737 L 331.427 573.917 C 321.867 573.917 312.307 573.917 302.707 573.917 C 291.379 573.917 265.43 570.226 256.553 580.342 C 250.166 587.587 250.97 604.948 250.689 614.38 C 249.002 670.519 247.997 727.068 248.118 783.253 C 248.118 793.779 246.31 806.902 252.336 815.15 C 258.361 823.397 270.411 828.136 279.329 829.139 C 292.946 830.688 307.246 829.412 320.863 829.503 C 436.467 830.447 552.071 831.249 667.675 831.918 C 682.979 831.918 698.163 831.372 713.467 830.825 C 737.367 829.913 771.188 836.703 771.751 800.796 C 772.835 740.283 771.55 679.542 770.947 618.983 Z M 764.279 763.841 C 764.279 774.139 764.199 784.451 764.038 794.781 C 764.038 810.32 762.351 818.066 744.758 819.934 C 723.669 822.213 701.617 821.529 680.489 821.802 C 578.783 823.261 476.876 820.253 375.21 819.57 L 305.639 819.068 C 293.87 819.068 280.534 821.073 269.487 815.514 C 251.492 806.401 257.437 766.848 257.678 747.665 C 258.08 715.038 258.505 682.38 258.963 649.695 C 258.963 638.896 259.164 628.096 259.405 617.297 C 259.807 599.936 258.521 586.129 277.642 584.352 C 290.736 583.121 303.952 583.395 317.127 583.44 L 448.035 583.942 L 649.197 584.671 L 725.075 584.671 C 739.857 584.671 758.134 578.61 764.922 598.341 L 764.922 598.341 C 768.377 653.021 764.681 709.206 764.279 763.841 Z" fill="#1e1e1e" style=""/>
</svg>