<?xml version="1.0" encoding="utf-8"?>
<svg viewBox="0 0 1024 1024" xmlns="http://www.w3.org/2000/svg" xmlns:bx="https://boxy-svg.com">
  <defs>
    <bx:grid x="0" y="0" width="16" height="16"/>
  </defs>
  <path style="stroke-opacity: 0.8; fill-opacity: 0.5; stroke-width: 8px; fill: rgb(57, 169, 219); stroke: rgb(57, 169, 219);" d="M 48 48 H 736 A 32 32 0 0 1 768 80 V 224 A 32 32 0 0 1 736 256 H 48 V 48 Z" bx:shape="rect 48 48 720 208 0 32 32 0 1@379cac63"/>
  <path style="stroke-opacity: 0.8; fill-opacity: 0.5; stroke-width: 8px; fill: rgb(57, 169, 219); stroke: rgb(57, 169, 219);" d="M 832 48 H 976 V 256 H 832 A 32 32 0 0 1 800 224 V 80 A 32 32 0 0 1 832 48 Z" bx:shape="rect 800 48 176 208 32 0 0 32 1@2ee30016"/>
  <path style="stroke-opacity: 0.8; fill-opacity: 0.5; stroke-width: 8px; fill: rgb(57, 169, 219); stroke: rgb(57, 169, 219);" d="M 48 288 H 560 A 32 32 0 0 1 592 320 V 464 A 32 32 0 0 1 560 496 H 48 V 288 Z" bx:shape="rect 48 288 544 208 0 32 32 0 1@68b519a1"/>
  <path style="stroke-opacity: 0.8; fill-opacity: 0.5; stroke-width: 8px; fill: rgb(57, 169, 219); stroke: rgb(57, 169, 219);" d="M 656 288 H 976 V 496 H 656 A 32 32 0 0 1 624 464 V 320 A 32 32 0 0 1 656 288 Z" bx:shape="rect 624 288 352 208 32 0 0 32 1@fa091c87"/>
  <path style="stroke-opacity: 0.8; fill-opacity: 0.5; stroke-width: 8px; fill: rgb(57, 169, 219); stroke: rgb(57, 169, 219);" d="M 48 528 H 368 A 32 32 0 0 1 400 560 V 704 A 32 32 0 0 1 368 736 H 48 V 528 Z" bx:shape="rect 48 528 352 208 0 32 32 0 1@a46e8f0b"/>
  <path style="stroke-opacity: 0.8; fill-opacity: 0.5; stroke-width: 8px; fill: rgb(57, 169, 219); stroke: rgb(57, 169, 219);" d="M 464 528 H 976 V 736 H 464 A 32 32 0 0 1 432 704 V 560 A 32 32 0 0 1 464 528 Z" bx:shape="rect 432 528 544 208 32 0 0 32 1@483f2674"/>
  <path style="stroke-opacity: 0.8; fill-opacity: 0.5; stroke-width: 8px; fill: rgb(57, 169, 219); stroke: rgb(57, 169, 219);" d="M 288 768 H 976 V 976 H 288 A 32 32 0 0 1 256 944 V 800 A 32 32 0 0 1 288 768 Z" bx:shape="rect 256 768 720 208 32 0 0 32 1@d89ecf6d"/>
  <path style="stroke-opacity: 0.8; fill-opacity: 0.5; stroke-width: 8px; fill: rgb(57, 169, 219); stroke: rgb(57, 169, 219);" d="M 48 768 H 192 A 32 32 0 0 1 224 800 V 944 A 32 32 0 0 1 192 976 H 48 V 768 Z" bx:shape="rect 48 768 176 208 0 32 32 0 1@a2729056"/>
  <path d="M 749.944 454.463 L 722.914 454.463 L 702.044 338.633 L 723.924 338.633 L 736.364 417.283 L 747.944 338.633 L 771.114 338.633 L 749.944 454.463 ZM 856.149 456.183 C 847.282 456.183 840.349 454.726 835.349 451.813 C 830.342 448.906 826.839 444.666 824.839 439.093 C 822.832 433.513 821.829 426.673 821.829 418.573 L 821.829 338.633 L 847.139 338.633 L 847.139 422.433 C 847.139 424.813 847.332 427.196 847.719 429.583 C 848.099 431.963 848.932 433.916 850.219 435.443 C 851.506 436.97 853.482 437.733 856.149 437.733 C 858.916 437.733 860.919 436.97 862.159 435.443 C 863.399 433.916 864.186 431.963 864.519 429.583 C 864.852 427.196 865.019 424.813 865.019 422.433 L 865.019 338.633 L 890.469 338.633 L 890.469 418.573 C 890.469 426.673 889.446 433.513 887.399 439.093 C 885.346 444.666 881.842 448.906 876.889 451.813 C 871.929 454.726 865.016 456.183 856.149 456.183 ZM 999.11 454.463 L 946.77 454.463 L 946.77 338.633 L 998.82 338.633 L 998.82 356.083 L 972.37 356.083 L 972.37 384.823 L 992.53 384.823 L 992.53 402.553 L 972.37 402.553 L 972.37 437.163 L 999.11 437.163 L 999.11 454.463 Z" style="fill: rgb(255, 255, 255); stroke-linecap: round; white-space: pre; stroke: rgb(123, 123, 123); stroke-width: 5.95728px;" transform="matrix(0.9388251304626465, 0, 0, 1.0755159854888916, 3.863792896270752, -33.463348388671875)"/>
  <path d="M 733.074 454.463 L 707.474 454.463 L 707.474 338.633 L 757.524 338.633 L 757.524 355.933 L 733.074 355.933 L 733.074 385.103 L 754.374 385.103 L 754.374 402.983 L 733.074 402.983 L 733.074 454.463 ZM 906.02 454.463 L 853.82 454.463 L 853.82 338.633 L 879.42 338.633 L 879.42 437.163 L 906.02 437.163 L 906.02 454.463 ZM 1053.365 454.463 L 1001.025 454.463 L 1001.025 338.633 L 1053.075 338.633 L 1053.075 356.083 L 1026.625 356.083 L 1026.625 384.823 L 1046.785 384.823 L 1046.785 402.553 L 1026.625 402.553 L 1026.625 437.163 L 1053.365 437.163 L 1053.365 454.463 ZM 1163.535 454.463 L 1142.365 454.463 L 1164.815 392.113 L 1143.365 338.633 L 1167.535 338.633 L 1180.265 369.953 L 1190.555 338.633 L 1211.865 338.633 L 1191.555 398.833 L 1214.155 454.463 L 1190.125 454.463 L 1175.975 419.853 L 1163.535 454.463 Z" style="fill: rgb(255, 255, 255); white-space: pre; stroke: rgb(123, 123, 123); stroke-linecap: round; stroke-width: 5.96589px;" transform="matrix(0.9359180331230164, 0, 0, 1.0755159854888916, -192.47122192382812, 206.78872680664062)"/>
</svg>